<mxfile host="Electron" modified="2023-05-29T16:21:45.365Z" agent="Mozilla/5.0 (Windows NT 10.0; Win64; x64) AppleWebKit/537.36 (KHTML, like Gecko) draw.io/21.2.8 Chrome/112.0.5615.165 Electron/24.2.0 Safari/537.36" etag="Yi5Md9PjoKsBV6qaJXLi" version="21.2.8" type="device">
  <diagram name="Pagina-1" id="cRLQu5AnUjknGKx3u6Ge">
    <mxGraphModel dx="1276" dy="606" grid="1" gridSize="10" guides="1" tooltips="1" connect="1" arrows="1" fold="1" page="1" pageScale="1" pageWidth="827" pageHeight="1169" math="0" shadow="0">
      <root>
        <mxCell id="0" />
        <mxCell id="1" parent="0" />
        <mxCell id="eE56fRcTvq2fknQPrmKP-1" value="Login" style="rounded=1;whiteSpace=wrap;html=1;" vertex="1" parent="1">
          <mxGeometry x="140" y="122.5" width="100" height="45" as="geometry" />
        </mxCell>
        <mxCell id="eE56fRcTvq2fknQPrmKP-2" value="" style="ellipse;html=1;fillColor=#000000;strokeColor=#ff0000;" vertex="1" parent="1">
          <mxGeometry x="40" y="130" width="30" height="30" as="geometry" />
        </mxCell>
        <mxCell id="eE56fRcTvq2fknQPrmKP-3" value="" style="ellipse;html=1;shape=endState;fillColor=#000000;strokeColor=#ff0000;" vertex="1" parent="1">
          <mxGeometry x="750" y="227.5" width="30" height="30" as="geometry" />
        </mxCell>
        <mxCell id="eE56fRcTvq2fknQPrmKP-4" value="Logged In" style="rounded=1;whiteSpace=wrap;html=1;" vertex="1" parent="1">
          <mxGeometry x="270" y="220" width="100" height="45" as="geometry" />
        </mxCell>
        <mxCell id="eE56fRcTvq2fknQPrmKP-5" value="Logged Out" style="rounded=1;whiteSpace=wrap;html=1;" vertex="1" parent="1">
          <mxGeometry x="270" y="50" width="100" height="45" as="geometry" />
        </mxCell>
        <mxCell id="eE56fRcTvq2fknQPrmKP-6" value="MenuPanel" style="rounded=1;whiteSpace=wrap;html=1;" vertex="1" parent="1">
          <mxGeometry x="420" y="220" width="100" height="45" as="geometry" />
        </mxCell>
        <mxCell id="eE56fRcTvq2fknQPrmKP-7" value="SongPanel" style="rounded=1;whiteSpace=wrap;html=1;" vertex="1" parent="1">
          <mxGeometry x="570" y="115" width="100" height="45" as="geometry" />
        </mxCell>
        <mxCell id="eE56fRcTvq2fknQPrmKP-8" value="PlaylistPanel" style="rounded=1;whiteSpace=wrap;html=1;" vertex="1" parent="1">
          <mxGeometry x="570" y="180" width="100" height="45" as="geometry" />
        </mxCell>
        <mxCell id="eE56fRcTvq2fknQPrmKP-9" value="UserPanel" style="rounded=1;whiteSpace=wrap;html=1;" vertex="1" parent="1">
          <mxGeometry x="570" y="260" width="100" height="45" as="geometry" />
        </mxCell>
        <mxCell id="eE56fRcTvq2fknQPrmKP-10" value="QueryPanel" style="rounded=1;whiteSpace=wrap;html=1;" vertex="1" parent="1">
          <mxGeometry x="570" y="322.5" width="100" height="45" as="geometry" />
        </mxCell>
        <mxCell id="eE56fRcTvq2fknQPrmKP-11" value="" style="endArrow=open;endFill=1;endSize=12;html=1;rounded=0;exitX=0.5;exitY=0;exitDx=0;exitDy=0;entryX=0;entryY=0.5;entryDx=0;entryDy=0;" edge="1" parent="1" source="eE56fRcTvq2fknQPrmKP-1" target="eE56fRcTvq2fknQPrmKP-5">
          <mxGeometry width="160" relative="1" as="geometry">
            <mxPoint x="340" y="260" as="sourcePoint" />
            <mxPoint x="500" y="260" as="targetPoint" />
            <Array as="points">
              <mxPoint x="190" y="73" />
            </Array>
          </mxGeometry>
        </mxCell>
        <mxCell id="eE56fRcTvq2fknQPrmKP-12" value="" style="endArrow=open;endFill=1;endSize=12;html=1;rounded=0;exitX=0.5;exitY=1;exitDx=0;exitDy=0;entryX=0;entryY=0.5;entryDx=0;entryDy=0;" edge="1" parent="1" source="eE56fRcTvq2fknQPrmKP-1" target="eE56fRcTvq2fknQPrmKP-4">
          <mxGeometry width="160" relative="1" as="geometry">
            <mxPoint x="200" y="133" as="sourcePoint" />
            <mxPoint x="280" y="83" as="targetPoint" />
            <Array as="points">
              <mxPoint x="190" y="243" />
            </Array>
          </mxGeometry>
        </mxCell>
        <mxCell id="eE56fRcTvq2fknQPrmKP-13" value="" style="endArrow=open;endFill=1;endSize=12;html=1;rounded=0;exitX=1;exitY=0.5;exitDx=0;exitDy=0;entryX=0;entryY=0.5;entryDx=0;entryDy=0;" edge="1" parent="1" source="eE56fRcTvq2fknQPrmKP-4" target="eE56fRcTvq2fknQPrmKP-6">
          <mxGeometry width="160" relative="1" as="geometry">
            <mxPoint x="200" y="178" as="sourcePoint" />
            <mxPoint x="280" y="253" as="targetPoint" />
            <Array as="points" />
          </mxGeometry>
        </mxCell>
        <mxCell id="eE56fRcTvq2fknQPrmKP-14" value="" style="endArrow=open;endFill=1;endSize=12;html=1;rounded=0;exitX=1;exitY=0.5;exitDx=0;exitDy=0;entryX=0;entryY=0.5;entryDx=0;entryDy=0;" edge="1" parent="1" source="eE56fRcTvq2fknQPrmKP-2" target="eE56fRcTvq2fknQPrmKP-1">
          <mxGeometry width="160" relative="1" as="geometry">
            <mxPoint x="70" y="180" as="sourcePoint" />
            <mxPoint x="120" y="180" as="targetPoint" />
            <Array as="points" />
          </mxGeometry>
        </mxCell>
        <mxCell id="eE56fRcTvq2fknQPrmKP-15" value="" style="endArrow=open;endFill=1;endSize=12;html=1;rounded=0;entryX=0;entryY=0.5;entryDx=0;entryDy=0;exitX=0.5;exitY=0;exitDx=0;exitDy=0;" edge="1" parent="1" source="eE56fRcTvq2fknQPrmKP-6" target="eE56fRcTvq2fknQPrmKP-7">
          <mxGeometry width="160" relative="1" as="geometry">
            <mxPoint x="380" y="83" as="sourcePoint" />
            <mxPoint x="465" y="83" as="targetPoint" />
            <Array as="points">
              <mxPoint x="470" y="138" />
            </Array>
          </mxGeometry>
        </mxCell>
        <mxCell id="eE56fRcTvq2fknQPrmKP-16" value="" style="endArrow=open;endFill=1;endSize=12;html=1;rounded=0;entryX=0;entryY=0.5;entryDx=0;entryDy=0;exitX=0.5;exitY=1;exitDx=0;exitDy=0;" edge="1" parent="1" source="eE56fRcTvq2fknQPrmKP-6" target="eE56fRcTvq2fknQPrmKP-10">
          <mxGeometry width="160" relative="1" as="geometry">
            <mxPoint x="480" y="230" as="sourcePoint" />
            <mxPoint x="580" y="148" as="targetPoint" />
            <Array as="points">
              <mxPoint x="470" y="345" />
            </Array>
          </mxGeometry>
        </mxCell>
        <mxCell id="eE56fRcTvq2fknQPrmKP-17" value="" style="endArrow=open;endFill=1;endSize=12;html=1;rounded=0;entryX=0;entryY=0.5;entryDx=0;entryDy=0;exitX=0.75;exitY=0;exitDx=0;exitDy=0;" edge="1" parent="1" source="eE56fRcTvq2fknQPrmKP-6" target="eE56fRcTvq2fknQPrmKP-8">
          <mxGeometry width="160" relative="1" as="geometry">
            <mxPoint x="480" y="230" as="sourcePoint" />
            <mxPoint x="580" y="148" as="targetPoint" />
            <Array as="points">
              <mxPoint x="495" y="203" />
            </Array>
          </mxGeometry>
        </mxCell>
        <mxCell id="eE56fRcTvq2fknQPrmKP-18" value="" style="endArrow=open;endFill=1;endSize=12;html=1;rounded=0;entryX=0;entryY=0.5;entryDx=0;entryDy=0;exitX=0.75;exitY=1;exitDx=0;exitDy=0;" edge="1" parent="1" source="eE56fRcTvq2fknQPrmKP-6" target="eE56fRcTvq2fknQPrmKP-9">
          <mxGeometry width="160" relative="1" as="geometry">
            <mxPoint x="505" y="230" as="sourcePoint" />
            <mxPoint x="580" y="213" as="targetPoint" />
            <Array as="points">
              <mxPoint x="495" y="280" />
            </Array>
          </mxGeometry>
        </mxCell>
        <mxCell id="eE56fRcTvq2fknQPrmKP-19" value="" style="endArrow=open;endFill=1;endSize=12;html=1;rounded=0;exitX=1;exitY=0.5;exitDx=0;exitDy=0;entryX=0;entryY=0.5;entryDx=0;entryDy=0;" edge="1" parent="1" source="eE56fRcTvq2fknQPrmKP-6" target="eE56fRcTvq2fknQPrmKP-3">
          <mxGeometry width="160" relative="1" as="geometry">
            <mxPoint x="380" y="253" as="sourcePoint" />
            <mxPoint x="430" y="253" as="targetPoint" />
            <Array as="points" />
          </mxGeometry>
        </mxCell>
        <mxCell id="eE56fRcTvq2fknQPrmKP-20" value="" style="endArrow=open;endFill=1;endSize=12;html=1;rounded=0;exitX=1;exitY=0.5;exitDx=0;exitDy=0;entryX=0.5;entryY=0;entryDx=0;entryDy=0;" edge="1" parent="1" source="eE56fRcTvq2fknQPrmKP-5" target="eE56fRcTvq2fknQPrmKP-3">
          <mxGeometry width="160" relative="1" as="geometry">
            <mxPoint x="530" y="253" as="sourcePoint" />
            <mxPoint x="760" y="253" as="targetPoint" />
            <Array as="points">
              <mxPoint x="765" y="73" />
            </Array>
          </mxGeometry>
        </mxCell>
      </root>
    </mxGraphModel>
  </diagram>
</mxfile>
